<svg xmlns="http://www.w3.org/2000/svg" width="980" height="620" viewBox="0 0 980 620">
<rect width="100%" height="100%" fill="white"/>
<text x="30" y="36" font-size="22" font-family="Arial">Control Loop Replay & Divergence Summary</text>
<line x1="40" y1="360" x2="470" y2="360" stroke="black" stroke-width="1"/>
<line x1="60" y1="80" x2="60" y2="360" stroke="black" stroke-width="1"/>
<text x="70" y="95" font-size="14">Expected vs Actual Trajectories</text>
<polyline fill="none" stroke="#2563eb" stroke-width="2" points="150,248 150,248 150,248 150,248 150,248 150,248 150,248 150,248 150,248 150,248 150,248 150,248 150,248 150,248 150,248 150,248 150,248 150,248 150,248 150,248 258,158 258,158 258,158 258,158 258,158 258,158 258,158 258,158 258,158 258,158 258,158 258,158 258,158 258,158 258,158 258,158 258,158 258,158 258,158 258,158 375,221 375,221 375,221 375,221 375,221 375,221 375,221 375,221 375,221 375,221 375,221 375,221 375,221 375,221 375,221 375,221 375,221 375,221 375,221 375,221 438,86 438,86 438,86 438,86 438,86 438,86 438,86 438,86 438,86 438,86 438,86 438,86 438,86 438,86 438,86 438,86 438,86 438,86 438,86 438,86"/>
<polyline fill="none" stroke="#16a34a" stroke-width="2" points="60.8433,319.325 62.53,317.976 65.06,315.952 68.4334,313.253 72.6501,309.88 77.7101,305.832 83.5545,301.156 90.0661,295.947 97.1238,290.301 104.604,284.317 112.383,278.093 120.339,271.729 128.352,265.318 136.308,258.954 144.097,252.722 151.619,246.705 158.779,240.977 165.494,235.605 171.69,230.648 177.303,226.157 183.737,220.963 190.921,215.122 198.72,208.743 206.998,201.941 215.618,194.831 224.444,187.524 233.342,180.133 242.184,172.765 250.851,165.521 259.227,158.498 267.209,151.784 274.704,145.46 281.627,139.595 287.907,134.252 293.487,129.482 298.318,125.326 302.368,121.815 305.614,118.968 308.048,116.795 309.671,115.297 311.811,114.748 314.449,115.157 317.57,116.532 321.152,118.883 325.176,122.22 329.617,126.554 334.448,131.894 339.629,138.242 345.072,145.463 350.689,153.416 356.393,161.957 362.101,170.941 367.734,180.221 373.214,189.655 378.473,199.103 383.446,208.432 388.077,217.518 392.317,226.243 396.124,234.503 399.464,242.201 402.967,248.832 406.609,254.392 410.365,258.878 414.21,262.288 418.12,264.62 422.073,265.872 426.045,266.045 430.012,265.138 433.95,263.151 437.834,260.085 441.637,255.943 445.331,250.726 448.886,244.438 452.269,237.084 455.442,228.67 458.365,219.206 460.987,208.704 463.25,197.184 465.079,184.675 466.446,171.348"/>
<polyline fill="none" stroke="#dc2626" stroke-width="2" points="60.8433,319.325 62.53,317.976 65.06,315.952 68.4334,313.253 72.6501,309.88 77.7101,305.832 83.5545,301.156 90.0661,295.947 97.1238,290.301 104.604,284.317 112.383,278.093 120.339,271.729 128.352,265.318 136.308,258.954 144.097,252.722 151.619,246.705 158.779,240.977 165.494,235.605 171.784,230.573 177.486,226.011 184.008,220.746 191.272,214.84 199.143,208.404 207.484,201.551 216.274,194.302 225.376,186.769 234.773,178.967 244.446,170.912 254.377,162.623 264.543,154.118 274.921,145.417 285.487,136.541 296.21,127.516 307.062,118.369 318.009,109.125 329.02,99.8143 340.06,90.4647 351.097,81.1036 362.096,71.7618 373.021,62.4706 383.758,54.243 394.26,47.0694 404.48,40.9386 414.379,35.8388 423.919,31.7574 433.063,28.681 441.778,26.5959 450.033,25.4877 457.797,25.3415 465.041,26.1419 471.737,27.8727 477.856,30.5171 483.373,34.0573 488.259,38.4747 492.489,43.7495 496.035,49.8602 498.87,56.7841 500.966,64.4962 502.297,72.9691 502.831,82.1724 502.434,91.0152 501.153,99.3898 499.045,107.2 496.178,114.362 492.625,120.805 488.467,126.47 483.79,131.314 478.682,135.306 473.234,138.427 467.539,140.675 461.686,142.055 455.764,142.589 449.861,142.306 444.057,141.248 438.43,139.464 433.05,137.012 427.981,133.956 423.28,130.366 418.998,126.317 415.174,121.885"/>
<polyline fill="none" stroke="#ea580c" stroke-width="2" points="60.8433,319.325 62.53,317.976 65.06,315.952 68.4334,313.253 72.6501,309.88 77.7101,305.832 83.5545,301.156 90.0661,295.947 97.1238,290.301 104.604,284.317 112.383,278.093 120.339,271.729 128.352,265.318 136.308,258.954 144.097,252.722 151.619,246.705 158.779,240.977 165.494,235.605 171.69,230.648 177.303,226.157 183.737,220.963 190.921,215.122 198.72,208.743 206.998,201.941 215.618,194.831 224.444,187.524 233.342,180.133 242.184,172.765 250.851,165.521 259.227,158.498 267.214,151.781 274.814,145.372 282.028,139.274 288.858,133.487 295.305,128.014 301.369,122.855 307.05,118.01 312.35,113.48 317.269,109.266 321.806,105.368 326.486,101.944 331.29,98.9989 336.198,96.5381 341.19,94.5649 346.248,93.0824 351.353,92.0927 356.517,92.1813 361.696,93.3499 366.847,95.5981 371.921,98.9235 376.867,103.321 381.631,108.784 386.151,115.298 390.357,122.846 394.171,131.4 397.545,140.824 400.451,150.945 402.87,161.593 404.79,172.592 406.207,183.775 407.839,193.899 409.66,202.96 411.645,210.953 413.772,217.876 416.02,223.725 418.37,228.5 420.802,232.197 423.297,234.816 425.839,236.357 428.409,236.817 430.988,236.198 433.557,234.499 436.098,231.72 438.59,227.862 441.009,222.927 443.333,216.916 445.534,209.832 447.581,201.679 449.435,192.463 451.051,182.194"/>
<polyline fill="none" stroke="#7c3aed" stroke-width="2" points="60.8433,319.325 62.53,317.976 65.06,315.952 68.4334,313.253 72.6501,309.88 77.7101,305.832 83.5545,301.156 90.0661,295.947 97.1238,290.301 104.604,284.317 112.383,278.093 120.339,271.729 128.352,265.318 136.308,258.954 144.097,252.722 151.619,246.705 160.786,239.371 167.37,234.104 173.414,229.269 178.858,224.914 185.122,219.855 192.124,214.157 199.734,207.93 207.816,201.284 216.238,194.332 224.865,187.183 233.568,179.948 242.221,172.73 250.706,165.632 261.264,156.763 268.974,150.265 276.184,144.168 282.814,138.539 290.771,131.784 298.727,125.029 304.524,120.086 309.488,115.831 313.62,112.264 316.921,109.388 319.392,107.202 322.259,106.021 326.614,106.2 330.302,107.363 334.299,109.561 338.574,112.802 343.094,117.095 347.818,122.449 352.7,128.872 357.674,136.295 362.667,144.57 367.608,153.542 372.43,163.056 377.071,172.952 381.474,183.076 385.588,193.275 389.369,203.403 392.779,213.322 395.787,222.902 398.368,232.024 400.505,240.582 402.822,248.074 405.298,254.498 407.914,259.852 410.652,264.132 413.494,267.337 416.422,269.466 419.419,270.517 422.467,270.489 425.549,269.381 428.646,267.194 431.74,263.927 434.81,259.58 437.834,254.154 440.79,247.65 443.653,240.07 446.392,231.417 448.975,221.696 451.362,210.912 453.504,199.077 455.337,186.207"/>
<text x="285" y="108" font-size="12" fill="#2563eb">Waypoint Path</text>
<text x="285" y="126" font-size="12" fill="#16a34a">Healthy Trajectory</text>
<text x="285" y="160" font-size="12" fill="#dc2626">delayed_sensor</text>
<text x="285" y="178" font-size="12" fill="#ea580c">actuator_saturation</text>
<text x="285" y="196" font-size="12" fill="#7c3aed">timing_jitter</text>
<text x="530" y="95" font-size="16">Scenario Comparison</text>
<text x="530" y="122" font-size="12">scenario</text>
<text x="655" y="122" font-size="12">div step</text>
<text x="730" y="122" font-size="12">time(s)</text>
<text x="800" y="122" font-size="12">missed dl</text>
<text x="885" y="122" font-size="12">root cause</text>
<text x="530" y="150" font-size="11" fill="#dc2626">delayed_sensor</text>
<text x="660" y="150" font-size="11">38</text>
<text x="732" y="150" font-size="11">3.9</text>
<text x="815" y="150" font-size="11">0</text>
<text x="885" y="150" font-size="11">actuator_saturation,controller_output_clipping,delayed_measurement,dropped_sensor_sample,stale_state_estimate,state_estimate_drift,unstable_oscillation</text>
<text x="530" y="176" font-size="11" fill="#ea580c">actuator_saturation</text>
<text x="660" y="176" font-size="11">53</text>
<text x="732" y="176" font-size="11">5.4</text>
<text x="815" y="176" font-size="11">0</text>
<text x="885" y="176" font-size="11">actuator_saturation,controller_output_clipping,unstable_oscillation</text>
<text x="530" y="202" font-size="11" fill="#7c3aed">timing_jitter</text>
<text x="660" y="202" font-size="11">-1</text>
<text x="732" y="202" font-size="11">-1</text>
<text x="815" y="202" font-size="11">5</text>
<text x="885" y="202" font-size="11">actuator_saturation,controller_output_clipping,missed_update_cycle,timing_jitter,unstable_oscillation</text>
<text x="530" y="320" font-size="16">Visual Proof Artifact</text>
<text x="530" y="346" font-size="12">- expected trajectory vs actual trajectory</text>
<text x="530" y="366" font-size="12">- first divergence timestamp</text>
<text x="530" y="386" font-size="12">- timing-budget misses</text>
<text x="530" y="406" font-size="12">- root cause class</text>
<text x="530" y="426" font-size="12">- replay-based closed-loop debugging proof</text>
</svg>
