<svg xmlns="http://www.w3.org/2000/svg" width="520" height="360" viewBox="0 0 520 360">
<rect width="100%" height="100%" fill="white"/>
<line x1="40" y1="320" x2="480" y2="320" stroke="black" stroke-width="1"/>
<line x1="60" y1="20" x2="60" y2="320" stroke="black" stroke-width="1"/>
<text x="70" y="30" font-size="14">actuator_saturation trajectory</text>
<polyline fill="none" stroke="#2563eb" stroke-width="2" points="150,248 150,248 150,248 150,248 150,248 150,248 150,248 150,248 150,248 150,248 150,248 150,248 150,248 150,248 150,248 150,248 150,248 150,248 150,248 150,248 258,158 258,158 258,158 258,158 258,158 258,158 258,158 258,158 258,158 258,158 258,158 258,158 258,158 258,158 258,158 258,158 258,158 258,158 258,158 258,158 375,221 375,221 375,221 375,221 375,221 375,221 375,221 375,221 375,221 375,221 375,221 375,221 375,221 375,221 375,221 375,221 375,221 375,221 375,221 375,221 438,86 438,86 438,86 438,86 438,86 438,86 438,86 438,86 438,86 438,86 438,86 438,86 438,86 438,86 438,86 438,86 438,86 438,86 438,86 438,86"/>
<polyline fill="none" stroke="#16a34a" stroke-width="2" points="60.8433,319.325 62.53,317.976 65.06,315.952 68.4334,313.253 72.6501,309.88 77.7101,305.832 83.5545,301.156 90.0661,295.947 97.1238,290.301 104.604,284.317 112.383,278.093 120.339,271.729 128.352,265.318 136.308,258.954 144.097,252.722 151.619,246.705 158.779,240.977 165.494,235.605 171.69,230.648 177.303,226.157 183.737,220.963 190.921,215.122 198.72,208.743 206.998,201.941 215.618,194.831 224.444,187.524 233.342,180.133 242.184,172.765 250.851,165.521 259.227,158.498 267.214,151.781 274.814,145.372 282.028,139.274 288.858,133.487 295.305,128.014 301.369,122.855 307.05,118.01 312.35,113.48 317.269,109.266 321.806,105.368 326.486,101.944 331.29,98.9989 336.198,96.5381 341.19,94.5649 346.248,93.0824 351.353,92.0927 356.517,92.1813 361.696,93.3499 366.847,95.5981 371.921,98.9235 376.867,103.321 381.631,108.784 386.151,115.298 390.357,122.846 394.171,131.4 397.545,140.824 400.451,150.945 402.87,161.593 404.79,172.592 406.207,183.775 407.839,193.899 409.66,202.96 411.645,210.953 413.772,217.876 416.02,223.725 418.37,228.5 420.802,232.197 423.297,234.816 425.839,236.357 428.409,236.817 430.988,236.198 433.557,234.499 436.098,231.72 438.59,227.862 441.009,222.927 443.333,216.916 445.534,209.832 447.581,201.679 449.435,192.463 451.051,182.194"/>
<polyline fill="none" stroke="#dc2626" stroke-width="2" points="150,248 150,248 150,248 150,248 150,248 150,248 150,248 150,248 150,248 150,248 150,248 150,248 150,248 150,248 150,248 150,248 150,248 150,248 150,248 150,248 258,158 258,158 258,158 258,158 258,158 258,158 258,158 258,158 258,158 258,158 258,158 258,158 258,158 258,158 258,158 258,158 258,158 258,158 258,158 258,158 375,221 375,221 375,221 375,221 375,221 375,221 375,221 375,221 375,221 375,221 375,221 375,221 375,221 375,221 375,221 375,221 375,221 375,221 375,221 375,221 438,86 438,86 438,86 438,86 438,86 438,86 438,86 438,86 438,86 438,86 438,86 438,86 438,86 438,86 438,86 438,86 438,86 438,86 438,86 438,86"/>
<text x="300" y="40" font-size="12" fill="#2563eb">Waypoint Path</text>
<text x="300" y="58" font-size="12" fill="#16a34a">Expected Trajectory</text>
<text x="300" y="76" font-size="12" fill="#dc2626">Actual Trajectory</text>
</svg>
